<?xml version="1.0" encoding="UTF-8"?>
<svg id="Layer_1" data-name="Layer 1" xmlns="http://www.w3.org/2000/svg" viewBox="0 0 1584 443.55">
  <defs>
    <style>
      .cls-1 {
        fill: #114745;
      }
    </style>
  </defs>
  <path class="cls-1" d="M1035.95,90.2c-12.72.72-24.72,6.15-33.65,15.24v-7.21c0-3.23-2.62-5.85-5.85-5.85h-39.37c-3.23,0-5.85,2.62-5.85,5.85l.02,168.93h51.01l.05-77.36c-.01-7.09.42-15.08,1.3-23.97.5-7.55,2.49-14.93,5.84-21.71,3.78-7.2,10.4-10.8,19.87-10.8,6.17,0,10.78.89,13.86,2.7,3.08,1.8,6.93,4.46,11.57,7.83l19.31-44.57c-10.26-6.02-21.69-9.18-33.58-9.27-1.52,0-3.02.06-4.53.18ZM537.56,388.65c-3.11-7.31-8.93-13.12-16.23-16.23-3.73-1.38-7.69-2.07-11.67-2.03-3.95-.09-7.88.67-11.51,2.25-3.69,1.5-7.01,3.77-9.76,6.66-3.01,2.6-5.34,5.88-6.8,9.58-1.53,3.64-2.3,7.54-2.27,11.49l-.04-.02c-.07,12.28,7.3,23.38,18.65,28.07,3.7,1.57,7.67,2.4,11.69,2.44,3.95-.02,7.85-.79,11.51-2.27,3.66-1.62,7.02-3.86,9.92-6.62,5.67-5.74,8.76-13.55,8.54-21.61.04-3.99-.65-7.95-2.03-11.69ZM483.94,337.01s12.14,7.92,25.75,7.92,25.26-7.92,25.26-7.92l-.02-233.75c0-5.82-4.55-10.82-10.38-10.82h-30.21c-5.83,0-10.4,5.07-10.4,10.9-3.01-2.56-6.26-4.96-9.62-7.04-5.43-3.1-11.27-5.42-17.35-6.9-6.52-1.46-13.18-2.22-19.87-2.25-11.03-.19-21.97,2.01-32.06,6.45-9.79,4.58-18.43,11.31-25.26,19.68-7.35,8.72-12.92,18.79-16.4,29.65-3.65,11.97-5.09,24.5-5.02,37.01-.09,12.91,1.29,25.69,4.86,38.09,3.22,11.04,8.82,20.9,16.17,29.75,6.89,8.41,13.82,14.54,23.55,19.39,10.33,5.14,23.68,7.97,34.08,7.94,6.24-.02,12.47-.71,18.58-2.01,5.69-1.46,11.23-3.44,16.56-5.89,4.17-2.28,8.07-4.91,11.78-7.87v77.68ZM483.92,195.01c-.9,8.89-4.13,21.74-18.21,29.23-4.87,2.59-13.44,3.66-18.96,3.55-15.05-.44-19.95-6.72-21.49-7.71-1.8-1.29-3.42-2.77-4.64-4.39-3.51-4.11-6.01-8.97-7.33-14.21-1.8-6.7-2.61-13.62-2.44-20.56-.17-6.95.71-13.89,2.62-20.58,1.47-5.29,4.02-10.21,7.49-14.47,3.16-3.75,7.08-6.78,11.51-8.89,5.01-1.89,10.33-2.84,15.69-2.78,5.36-.12,10.69.82,15.69,2.78,4.23,2.04,8.02,4.89,11.16,8.38,3.41,4.13,5.91,8.94,7.33,14.1,0,.01,0,.03.01.05.87,3.05,1.59,6.03,1.59,9.19l-.02,26.3ZM61.2,18.34c-3.08-7.24-8.85-13-16.08-16.08-3.7-1.37-7.62-2.05-11.56-2.01-3.92-.09-7.81.67-11.4,2.23-3.66,1.49-6.95,3.73-9.67,6.59-2.99,2.57-5.3,5.82-6.73,9.49-1.51,3.6-2.28,7.47-2.25,11.38h.1c-.07,12.16,7.23,23.16,18.48,27.81,3.67,1.56,7.6,2.38,11.58,2.41,3.91-.02,7.78-.79,11.4-2.25,3.62-1.61,6.95-3.83,9.83-6.55,5.58-5.71,8.58-13.45,8.32-21.43.04-3.95-.64-7.87-2.01-11.58ZM53.23,92.45H13.9c-3.23,0-6.04,2.6-6.04,5.84v168.87h51.01V98.29c0-3.23-2.4-5.84-5.63-5.84ZM879.85,92.35h-39.35c-3.23,0-6.06,2.71-6.06,5.94v168.87h51.5V98.29c0-3.23-2.85-5.94-6.09-5.94ZM888.39,18.33c-3.12-7.33-8.96-13.17-16.29-16.29-3.75-1.38-7.71-2.07-11.71-2.03-3.97-.1-7.91.68-11.54,2.26-3.7,1.51-7.04,3.78-9.79,6.68-3.02,2.61-5.35,5.9-6.82,9.61-1.53,3.65-2.31,7.57-2.28,11.52l-.04-.02c-.07,12.32,7.33,23.45,18.71,28.15,3.71,1.57,7.7,2.41,11.73,2.44,3.96-.02,7.88-.79,11.54-2.28,3.67-1.63,7.04-3.87,9.95-6.64,5.69-5.76,8.79-13.59,8.57-21.68.04-4-.65-7.97-2.04-11.73ZM763.17,92.35h-39.12c-3.23,0-5.94,2.71-5.94,5.94v74.28c0,5.34-.15,10.94-.39,16.77-.35,4.53-.69,8.18-1.06,10.98-.42,2.32-1.06,4.6-1.91,6.8-.61,1.81-1.49,3.51-2.62,5.05l-.16.16c-1.57,2.23-3.38,4.27-5.42,6.09-2.29,1.87-4.81,3.45-7.49,4.71-6.19,2.78-12.92,4.16-19.71,4.06-4.82.16-9.62-.53-14.21-2.03-2.93-1.12-5.52-2.98-7.51-5.4-2.22-3.87-3.69-8.13-4.34-12.54-1.31-8.3-2.2-16.83-2.05-25.24v-83.69c0-3.23-2.21-5.94-5.45-5.94h-40.11c-3.23,0-5.45,2.71-5.45,5.94v98.55c.01,7.25-.1,13.7.23,19.11.23,4.45.75,8.88,1.56,13.25.73,3.2,1.66,6.34,2.8,9.42,1.25,2.86,2.65,5.65,4.18,8.36,2.8,4.19,6.14,7.99,9.92,11.32,3.94,3.24,8.28,5.97,12.91,8.12,5.03,2.16,10.29,3.75,15.69,4.71,5.86,1.06,11.82,1.59,17.78,1.56,7.08,0,14.14-.69,21.09-2.03,6.39-1.34,12.6-3.45,18.49-6.27,5.52-2.9,8.68-6.33,13.22-10.6v13.37h51.01V98.29c0-3.23-2.71-5.94-5.94-5.94ZM1302.77,5.19h-157.17c-3.73.16-6.25,2.71-6.25,5.94v250.08c0,3.23,2.52,5.94,5.76,5.94h157.38c3.23,0,5.73-2.71,5.73-5.94v-38.63c0-3.23-2.71-5.94-5.94-5.94h-105.98c-3.23,0-5.94-2.71-5.94-5.94v-52c0-3.23,2.71-5.94,5.94-5.94h73.29c3.23,0,5.94-2.71,5.94-5.94v-37.64c0-3.23-2.71-5.94-5.94-5.94h-73.29c-3.23,0-5.94-2.71-5.94-5.94v-37.64c0-3.23,2.71-5.45,5.94-5.45h105.98c3.23,0,5.94-2.71,5.94-5.94V11.13c0-3.23-2.48-5.94-5.45-5.94ZM291.08,130.42c-.73-3.2-1.66-6.34-2.8-9.42-1.25-2.86-2.65-5.65-4.18-8.36-2.8-4.19-6.14-7.99-9.92-11.32-3.94-3.24-8.28-5.97-12.91-8.12-5.03-2.16-10.29-3.74-15.69-4.71-5.86-1.06-11.82-1.59-17.78-1.56-7.08,0-14.14.69-21.08,2.03-6.39,1.34-12.6,3.45-18.49,6.27-5.52,2.91-8.5,6.71-13.04,10.98v-7.92c0-4.46-3.47-5.94-7.97-5.84h-37.28c-3.23,0-5.76,2.6-5.76,5.84v168.87h51.01v-80.22c0-5.34-.03-10.83.22-16.65.35-4.53.69-8.18,1.06-10.98.42-2.32,1.06-4.6,1.91-6.8.61-1.81,1.49-3.51,2.62-5.05l.16-.16c1.57-2.23,3.38-4.27,5.42-6.09,2.29-1.87,4.81-3.45,7.49-4.71,6.19-2.78,12.92-4.17,19.71-4.06,4.82-.16,9.62.53,14.21,2.03,2.93,1.12,5.73,2.82,7.51,5.4,2.54,3.67,3.69,8.13,4.34,12.54,1.31,8.3,2.38,16.72,2.23,25.12v89.63h51.01v-104.49c-.01-7.25-.07-13.58-.41-18.99-.23-4.45-.75-8.87-1.56-13.25ZM1577.92,103.75c-3.15-18.15-9.75-35.4-19.36-50.63-9.63-15.19-22.88-27.26-38.32-34.92-7.25-3.78-14.88-6.6-22.75-8.39-8.41-1.76-16.92-2.92-25.46-3.48-12.44-.94-26.53-1.14-42.06-1.14h-51.01c-2.98,0-5.45,2.36-5.45,5.6v250.5c0,3.24,2.42,5.86,5.4,5.86h61.12c12.87,0,24.72-.47,35.55-1.4,4.85-.2,9.68-.75,14.47-1.65,4.39-.74,8.41-1.77,10.39-2.31.76-.21,14.06-4.66,20.12-7.73,13.97-7.49,26.18-18.36,35.68-31.77,5.37-7.6,9.89-15.86,13.49-24.62,5.74-14.7,9.22-30.33,10.29-46.26.32-5.36.49-10.65.49-15.89.03-10.65-.83-21.29-2.58-31.77ZM1523.45,171.97c-3.46,11.58-9.86,21.87-18.47,29.68v.18c-5.76,5.22-12.52,8.97-19.78,11-4.91,1.28-9.92,2.1-14.97,2.44-6.47.71-13.72,1.38-22.45,1.38h-17.83c-2.98,0-4.95-2.7-4.95-5.94V59.66c0-3.23,1.98-5.44,4.95-5.45,5.49-.02,10.26-.04,16.34,0,8.11.05,15.48.24,21.88.91,19.5,2.05,31.86,10.3,36.8,14.89,8.57,7.87,14.97,18.17,18.47,29.76,6.86,23.49,6.86,48.71,0,72.2Z"/>
</svg>